<svg id="visual" viewBox="0 0 900 450" width="900" height="450" xmlns="http://www.w3.org/2000/svg" xmlns:xlink="http://www.w3.org/1999/xlink" version="1.1"><path d="M0 219L39 219L39 248L78 248L78 272L117 272L117 284L157 284L157 279L196 279L196 210L235 210L235 287L274 287L274 239L313 239L313 216L352 216L352 218L391 218L391 220L430 220L430 286L470 286L470 237L509 237L509 217L548 217L548 240L587 240L587 255L626 255L626 284L665 284L665 227L704 227L704 258L743 258L743 260L783 260L783 249L822 249L822 291L861 291L861 245L900 245L900 217L900 0L900 0L861 0L861 0L822 0L822 0L783 0L783 0L743 0L743 0L704 0L704 0L665 0L665 0L626 0L626 0L587 0L587 0L548 0L548 0L509 0L509 0L470 0L470 0L430 0L430 0L391 0L391 0L352 0L352 0L313 0L313 0L274 0L274 0L235 0L235 0L196 0L196 0L157 0L157 0L117 0L117 0L78 0L78 0L39 0L39 0L0 0Z" fill="#75ffaf"></path><path d="M0 154L39 154L39 208L78 208L78 178L117 178L117 190L157 190L157 218L196 218L196 185L235 185L235 185L274 185L274 232L313 232L313 181L352 181L352 166L391 166L391 228L430 228L430 165L470 165L470 160L509 160L509 164L548 164L548 180L587 180L587 205L626 205L626 179L665 179L665 220L704 220L704 228L743 228L743 176L783 176L783 231L822 231L822 231L861 231L861 231L900 231L900 180L900 0L900 0L861 0L861 0L822 0L822 0L783 0L783 0L743 0L743 0L704 0L704 0L665 0L665 0L626 0L626 0L587 0L587 0L548 0L548 0L509 0L509 0L470 0L470 0L430 0L430 0L391 0L391 0L352 0L352 0L313 0L313 0L274 0L274 0L235 0L235 0L196 0L196 0L157 0L157 0L117 0L117 0L78 0L78 0L39 0L39 0L0 0Z" fill="#40ff90"></path><path d="M0 108L39 108L39 131L78 131L78 134L117 134L117 121L157 121L157 163L196 163L196 108L235 108L235 147L274 147L274 118L313 118L313 165L352 165L352 163L391 163L391 103L430 103L430 148L470 148L470 126L509 126L509 166L548 166L548 104L587 104L587 169L626 169L626 154L665 154L665 144L704 144L704 120L743 120L743 118L783 118L783 141L822 141L822 154L861 154L861 171L900 171L900 136L900 0L900 0L861 0L861 0L822 0L822 0L783 0L783 0L743 0L743 0L704 0L704 0L665 0L665 0L626 0L626 0L587 0L587 0L548 0L548 0L509 0L509 0L470 0L470 0L430 0L430 0L391 0L391 0L352 0L352 0L313 0L313 0L274 0L274 0L235 0L235 0L196 0L196 0L157 0L157 0L117 0L117 0L78 0L78 0L39 0L39 0L0 0Z" fill="#00e874"></path><path d="M0 45L39 45L39 68L78 68L78 103L117 103L117 48L157 48L157 74L196 74L196 67L235 67L235 51L274 51L274 72L313 72L313 46L352 46L352 52L391 52L391 107L430 107L430 48L470 48L470 45L509 45L509 46L548 46L548 74L587 74L587 88L626 88L626 86L665 86L665 96L704 96L704 45L743 45L743 69L783 69L783 63L822 63L822 69L861 69L861 98L900 98L900 73L900 0L900 0L861 0L861 0L822 0L822 0L783 0L783 0L743 0L743 0L704 0L704 0L665 0L665 0L626 0L626 0L587 0L587 0L548 0L548 0L509 0L509 0L470 0L470 0L430 0L430 0L391 0L391 0L352 0L352 0L313 0L313 0L274 0L274 0L235 0L235 0L196 0L196 0L157 0L157 0L117 0L117 0L78 0L78 0L39 0L39 0L0 0Z" fill="#00bb5f"></path></svg>