<svg id="visual" viewBox="0 0 900 450" width="900" height="450" xmlns="http://www.w3.org/2000/svg" xmlns:xlink="http://www.w3.org/1999/xlink" version="1.1"><path d="M0 55L39 55L39 51L78 51L78 51L117 51L117 55L157 55L157 55L196 55L196 55L235 55L235 55L274 55L274 55L313 55L313 51L352 51L352 51L391 51L391 51L430 51L430 55L470 55L470 51L509 51L509 51L548 51L548 51L587 51L587 55L626 55L626 60L665 60L665 51L704 51L704 55L743 55L743 60L783 60L783 51L822 51L822 55L861 55L861 55L900 55L900 60L900 0L900 0L861 0L861 0L822 0L822 0L783 0L783 0L743 0L743 0L704 0L704 0L665 0L665 0L626 0L626 0L587 0L587 0L548 0L548 0L509 0L509 0L470 0L470 0L430 0L430 0L391 0L391 0L352 0L352 0L313 0L313 0L274 0L274 0L235 0L235 0L196 0L196 0L157 0L157 0L117 0L117 0L78 0L78 0L39 0L39 0L0 0Z" fill="#ceb3b1"></path><path d="M0 73L39 73L39 69L78 69L78 69L117 69L117 73L157 73L157 73L196 73L196 73L235 73L235 73L274 73L274 73L313 73L313 69L352 69L352 69L391 69L391 69L430 69L430 73L470 73L470 69L509 69L509 69L548 69L548 69L587 69L587 73L626 73L626 78L665 78L665 69L704 69L704 73L743 73L743 78L783 78L783 69L822 69L822 73L861 73L861 73L900 73L900 78L900 58L900 53L861 53L861 53L822 53L822 49L783 49L783 58L743 58L743 53L704 53L704 49L665 49L665 58L626 58L626 53L587 53L587 49L548 49L548 49L509 49L509 49L470 49L470 53L430 53L430 49L391 49L391 49L352 49L352 49L313 49L313 53L274 53L274 53L235 53L235 53L196 53L196 53L157 53L157 53L117 53L117 49L78 49L78 49L39 49L39 53L0 53Z" fill="#d5a8aa"></path><path d="M0 109L39 109L39 114L78 114L78 105L117 105L117 114L157 114L157 109L196 109L196 114L235 114L235 114L274 114L274 109L313 109L313 105L352 105L352 109L391 109L391 114L430 114L430 114L470 114L470 114L509 114L509 105L548 105L548 114L587 114L587 118L626 118L626 114L665 114L665 109L704 109L704 118L743 118L743 118L783 118L783 109L822 109L822 114L861 114L861 109L900 109L900 118L900 76L900 71L861 71L861 71L822 71L822 67L783 67L783 76L743 76L743 71L704 71L704 67L665 67L665 76L626 76L626 71L587 71L587 67L548 67L548 67L509 67L509 67L470 67L470 71L430 71L430 67L391 67L391 67L352 67L352 67L313 67L313 71L274 71L274 71L235 71L235 71L196 71L196 71L157 71L157 71L117 71L117 67L78 67L78 67L39 67L39 71L0 71Z" fill="#db9da6"></path><path d="M0 127L39 127L39 132L78 132L78 123L117 123L117 132L157 132L157 127L196 127L196 132L235 132L235 132L274 132L274 127L313 127L313 123L352 123L352 127L391 127L391 132L430 132L430 132L470 132L470 132L509 132L509 123L548 123L548 132L587 132L587 136L626 136L626 132L665 132L665 127L704 127L704 136L743 136L743 136L783 136L783 127L822 127L822 132L861 132L861 127L900 127L900 136L900 116L900 107L861 107L861 112L822 112L822 107L783 107L783 116L743 116L743 116L704 116L704 107L665 107L665 112L626 112L626 116L587 116L587 112L548 112L548 103L509 103L509 112L470 112L470 112L430 112L430 112L391 112L391 107L352 107L352 103L313 103L313 107L274 107L274 112L235 112L235 112L196 112L196 107L157 107L157 112L117 112L117 103L78 103L78 112L39 112L39 107L0 107Z" fill="#de92a6"></path><path d="M0 154L39 154L39 154L78 154L78 145L117 145L117 159L157 159L157 150L196 150L196 159L235 159L235 154L274 154L274 154L313 154L313 150L352 150L352 150L391 150L391 154L430 154L430 159L470 159L470 154L509 154L509 150L548 150L548 154L587 154L587 159L626 159L626 159L665 159L665 150L704 150L704 163L743 163L743 159L783 159L783 150L822 150L822 159L861 159L861 150L900 150L900 159L900 134L900 125L861 125L861 130L822 130L822 125L783 125L783 134L743 134L743 134L704 134L704 125L665 125L665 130L626 130L626 134L587 134L587 130L548 130L548 121L509 121L509 130L470 130L470 130L430 130L430 130L391 130L391 125L352 125L352 121L313 121L313 125L274 125L274 130L235 130L235 130L196 130L196 125L157 125L157 130L117 130L117 121L78 121L78 130L39 130L39 125L0 125Z" fill="#e087a9"></path><path d="M0 249L39 249L39 240L78 240L78 231L117 231L117 244L157 244L157 244L196 244L196 249L235 249L235 244L274 244L274 244L313 244L313 240L352 240L352 240L391 240L391 244L430 244L430 244L470 244L470 244L509 244L509 240L548 240L548 244L587 244L587 249L626 249L626 249L665 249L665 235L704 235L704 249L743 249L743 244L783 244L783 244L822 244L822 253L861 253L861 249L900 249L900 244L900 157L900 148L861 148L861 157L822 157L822 148L783 148L783 157L743 157L743 161L704 161L704 148L665 148L665 157L626 157L626 157L587 157L587 152L548 152L548 148L509 148L509 152L470 152L470 157L430 157L430 152L391 152L391 148L352 148L352 148L313 148L313 152L274 152L274 152L235 152L235 157L196 157L196 148L157 148L157 157L117 157L117 143L78 143L78 152L39 152L39 152L0 152Z" fill="#df7cb0"></path><path d="M0 267L39 267L39 258L78 258L78 249L117 249L117 262L157 262L157 262L196 262L196 267L235 267L235 262L274 262L274 262L313 262L313 258L352 258L352 258L391 258L391 262L430 262L430 262L470 262L470 262L509 262L509 258L548 258L548 262L587 262L587 267L626 267L626 267L665 267L665 253L704 253L704 267L743 267L743 262L783 262L783 262L822 262L822 271L861 271L861 267L900 267L900 262L900 242L900 247L861 247L861 251L822 251L822 242L783 242L783 242L743 242L743 247L704 247L704 233L665 233L665 247L626 247L626 247L587 247L587 242L548 242L548 238L509 238L509 242L470 242L470 242L430 242L430 242L391 242L391 238L352 238L352 238L313 238L313 242L274 242L274 242L235 242L235 247L196 247L196 242L157 242L157 242L117 242L117 229L78 229L78 238L39 238L39 247L0 247Z" fill="#da72b9"></path><path d="M0 298L39 298L39 289L78 289L78 280L117 280L117 294L157 294L157 294L196 294L196 294L235 294L235 294L274 294L274 289L313 289L313 289L352 289L352 289L391 289L391 289L430 289L430 289L470 289L470 289L509 289L509 289L548 289L548 294L587 294L587 294L626 294L626 298L665 298L665 280L704 280L704 294L743 294L743 289L783 289L783 289L822 289L822 298L861 298L861 298L900 298L900 294L900 260L900 265L861 265L861 269L822 269L822 260L783 260L783 260L743 260L743 265L704 265L704 251L665 251L665 265L626 265L626 265L587 265L587 260L548 260L548 256L509 256L509 260L470 260L470 260L430 260L430 260L391 260L391 256L352 256L352 256L313 256L313 260L274 260L274 260L235 260L235 265L196 265L196 260L157 260L157 260L117 260L117 247L78 247L78 256L39 256L39 265L0 265Z" fill="#d26bc4"></path><path d="M0 334L39 334L39 321L78 321L78 316L117 316L117 330L157 330L157 330L196 330L196 325L235 325L235 330L274 330L274 321L313 321L313 325L352 325L352 325L391 325L391 325L430 325L430 325L470 325L470 321L509 321L509 325L548 325L548 325L587 325L587 325L626 325L626 330L665 330L665 316L704 316L704 325L743 325L743 321L783 321L783 321L822 321L822 330L861 330L861 334L900 334L900 325L900 292L900 296L861 296L861 296L822 296L822 287L783 287L783 287L743 287L743 292L704 292L704 278L665 278L665 296L626 296L626 292L587 292L587 292L548 292L548 287L509 287L509 287L470 287L470 287L430 287L430 287L391 287L391 287L352 287L352 287L313 287L313 287L274 287L274 292L235 292L235 292L196 292L196 292L157 292L157 292L117 292L117 278L78 278L78 287L39 287L39 296L0 296Z" fill="#c465d2"></path><path d="M0 411L39 411L39 411L78 411L78 406L117 406L117 411L157 411L157 411L196 411L196 406L235 406L235 411L274 411L274 406L313 406L313 411L352 411L352 411L391 411L391 411L430 411L430 411L470 411L470 406L509 406L509 411L548 411L548 411L587 411L587 406L626 406L626 411L665 411L665 406L704 406L704 411L743 411L743 411L783 411L783 406L822 406L822 406L861 406L861 411L900 411L900 411L900 323L900 332L861 332L861 328L822 328L822 319L783 319L783 319L743 319L743 323L704 323L704 314L665 314L665 328L626 328L626 323L587 323L587 323L548 323L548 323L509 323L509 319L470 319L470 323L430 323L430 323L391 323L391 323L352 323L352 323L313 323L313 319L274 319L274 328L235 328L235 323L196 323L196 328L157 328L157 328L117 328L117 314L78 314L78 319L39 319L39 332L0 332Z" fill="#b063e0"></path><path d="M0 429L39 429L39 429L78 429L78 429L117 429L117 429L157 429L157 429L196 429L196 429L235 429L235 429L274 429L274 429L313 429L313 429L352 429L352 429L391 429L391 429L430 429L430 429L470 429L470 429L509 429L509 429L548 429L548 429L587 429L587 429L626 429L626 429L665 429L665 429L704 429L704 429L743 429L743 429L783 429L783 429L822 429L822 429L861 429L861 429L900 429L900 429L900 409L900 409L861 409L861 404L822 404L822 404L783 404L783 409L743 409L743 409L704 409L704 404L665 404L665 409L626 409L626 404L587 404L587 409L548 409L548 409L509 409L509 404L470 404L470 409L430 409L430 409L391 409L391 409L352 409L352 409L313 409L313 404L274 404L274 409L235 409L235 404L196 404L196 409L157 409L157 409L117 409L117 404L78 404L78 409L39 409L39 409L0 409Z" fill="#9363f0"></path><path d="M0 451L39 451L39 451L78 451L78 451L117 451L117 451L157 451L157 451L196 451L196 451L235 451L235 451L274 451L274 451L313 451L313 451L352 451L352 451L391 451L391 451L430 451L430 451L470 451L470 451L509 451L509 451L548 451L548 451L587 451L587 451L626 451L626 451L665 451L665 451L704 451L704 451L743 451L743 451L783 451L783 451L822 451L822 451L861 451L861 451L900 451L900 451L900 427L900 427L861 427L861 427L822 427L822 427L783 427L783 427L743 427L743 427L704 427L704 427L665 427L665 427L626 427L626 427L587 427L587 427L548 427L548 427L509 427L509 427L470 427L470 427L430 427L430 427L391 427L391 427L352 427L352 427L313 427L313 427L274 427L274 427L235 427L235 427L196 427L196 427L157 427L157 427L117 427L117 427L78 427L78 427L39 427L39 427L0 427Z" fill="#6666ff"></path></svg>