<?xml version="1.0" encoding="utf-8"?><!-- Uploaded to: SVG Repo, www.svgrepo.com, Generator: SVG Repo Mixer Tools -->
<svg width="800px" height="800px" viewBox="0 0 24 24" id="Line" xmlns="http://www.w3.org/2000/svg"><rect id="primary" x="6" y="3" width="12" height="18" rx="1" style="fill:none;stroke:#000000;stroke-linecap:round;stroke-linejoin:round;stroke-width:2px"></rect><path id="primary-2" data-name="primary" d="M14.22,3a19.44,19.44,0,0,1-.88,3.5c-.91,2.67-.2,5.53,4.66,6" style="fill:none;stroke:#000000;stroke-linecap:round;stroke-linejoin:round;stroke-width:2px"></path><path id="primary-3" data-name="primary" d="M9.52,11A8.86,8.86,0,0,0,8,7.55,5.13,5.13,0,0,0,6,6" style="fill:none;stroke:#000000;stroke-linecap:round;stroke-linejoin:round;stroke-width:2px"></path><path id="primary-4" data-name="primary" d="M12,21c0-2-.55-4.61-3.33-5.07A12.6,12.6,0,0,1,6,15.14" style="fill:none;stroke:#000000;stroke-linecap:round;stroke-linejoin:round;stroke-width:2px"></path><path id="primary-5" data-name="primary" d="M15,16a9.6,9.6,0,0,0,3,2" style="fill:none;stroke:#000000;stroke-linecap:round;stroke-linejoin:round;stroke-width:2px"></path></svg>